HIERARCHY
ROOT Hips
{
  OFFSET 0 0 0
  CHANNELS 6 Xposition Yposition Zposition Zrotation Xrotation Yrotation
  JOINT Spine
  {
    OFFSET 0 10.1816 0.131521
    CHANNELS 3 Zrotation Xrotation Yrotation
    JOINT Spine1
    {
      OFFSET 0 10.0835 -1.0008
      CHANNELS 3 Zrotation Xrotation Yrotation
      JOINT Spine2
      {
        OFFSET 0 9.10001 -1.37342
        CHANNELS 3 Zrotation Xrotation Yrotation
        JOINT Neck
        {
          OFFSET 0 16.6717 -2.51617
          CHANNELS 3 Zrotation Xrotation Yrotation
          JOINT Head
          {
            OFFSET 0 9.61788 1.68501
            CHANNELS 3 Zrotation Xrotation Yrotation
            End Site
            {
              OFFSET 0 0 0
            }
          }
        }
        JOINT LeftShoulder
        {
          OFFSET 4.57045 10.946 -2.62799
          CHANNELS 3 Zrotation Xrotation Yrotation
          JOINT LeftArm
          {
            OFFSET 10.5924 -0.524583 -2.23212
            CHANNELS 3 Zrotation Xrotation Yrotation
            JOINT LeftForeArm
            {
              OFFSET 27.8415 -8.94286e-05 3.74589e-05
              CHANNELS 3 Zrotation Xrotation Yrotation
              JOINT LeftHand
              {
                OFFSET 28.3288 -1.74407e-05 3.78045e-05
                CHANNELS 3 Zrotation Xrotation Yrotation
                End Site
                {
                  OFFSET 0 0 0
                }
              }
            }
          }
        }
        JOINT RightShoulder
        {
          OFFSET -4.56997 10.9462 -2.62802
          CHANNELS 3 Zrotation Xrotation Yrotation
          JOINT RightArm
          {
            OFFSET -10.5928 -0.524798 -2.2321
            CHANNELS 3 Zrotation Xrotation Yrotation
            JOINT RightForeArm
            {
              OFFSET -27.8415 -3.30792e-05 1.16763e-05
              CHANNELS 3 Zrotation Xrotation Yrotation
              JOINT RightHand
              {
                OFFSET -28.3288 0 5.5816e-05
                CHANNELS 3 Zrotation Xrotation Yrotation
                End Site
                {
                  OFFSET 0 0 0
                }
              }
            }
          }
        }
      }
    }
  }
  JOINT LeftUpLeg
  {
    OFFSET 8.20778 -6.75171 -1.59956
    CHANNELS 3 Zrotation Xrotation Yrotation
    JOINT LeftLeg
    {
      OFFSET 0 -44.3705 0.284643
      CHANNELS 3 Zrotation Xrotation Yrotation
      JOINT LeftFoot
      {
        OFFSET 0 -44.4279 -2.98219
        CHANNELS 3 Zrotation Xrotation Yrotation
        JOINT LeftToeBase
        {
          OFFSET 0 -8.72867 10.7106
          CHANNELS 3 Zrotation Xrotation Yrotation
          End Site
          {
            OFFSET 0 0 0
          }
        }
      }
    }
  }
  JOINT RightUpLeg
  {
    OFFSET -8.2078 -6.75166 -1.59956
    CHANNELS 3 Zrotation Xrotation Yrotation
    JOINT RightLeg
    {
      OFFSET 0 -44.3705 0.286156
      CHANNELS 3 Zrotation Xrotation Yrotation
      JOINT RightFoot
      {
        OFFSET 0 -44.4277 -2.98379
        CHANNELS 3 Zrotation Xrotation Yrotation
        JOINT RightToeBase
        {
          OFFSET 0 -8.72867 10.7106
          CHANNELS 3 Zrotation Xrotation Yrotation
          End Site
          {
            OFFSET 0 0 0
          }
        }
      }
    }
  }
}
MOTION
Frames:	19
Frame Time:	0.0333333
-18.9742 91.5531 604.342 7.55489 4.18001 11.0819 3.28951 14.0429 -4.48839 4.54172 15.9521 -6.79183 7.74532 0.997812 -4.65053 2.40539 -23.4335 0.499089 -4.88889 8.30906 4.11703 4.12296 -9.01229 -33.5034 -17.6207 -0.0469254 -40.1241 -0.000463665 5.97053e-05 -22.4059 10.333 24.5211 -0.634968 1.42582 -7.9496 33.8777 18.7921 -21.6462 25.9943 -1.42001e-05 5.44088e-05 35.314 -12.8368 33.7401 3.15346 7.53686 -29.8686 32.8138 0.0564299 69.0476 0.235273 6.31874 32.4916 -14.7974 -0.660524 -22.4958 -0.131359 -12.007 -48.5566 -5.87815 0.00315737 41.6187 0.0394783 -0.540677 3.00385 -3.41423 -0.128644 4.61111 0.00523682 
-18.7381 90.6348 611.931 10.1978 3.40491 11.8206 4.55663 15.1747 -4.12558 5.44637 16.1147 -6.54639 7.23141 0.604817 -5.31808 2.58686 -19.1254 0.0630673 -6.40639 5.25473 3.21832 5.04178 -7.77241 -31.057 -19.9373 2.69698 -39.1252 -0.000456076 5.59776e-05 -29.9128 16.3555 15.3456 -8.07409 0.670711 -6.32564 30.9277 18.9512 -21.7236 19.6722 -2.79217e-05 4.14038e-05 51.6142 -27.0827 38.2272 8.23529 12.386 -32.9544 33.6912 0.135984 76.6401 0.321937 0.95134 53.1412 -14.1437 -0.0792592 -2.84517 -0.00197637 -13.873 -48.7304 -5.08071 -0.00307173 53.2479 -0.0255553 -2.28245 -4.80263 -4.4115 -0.122444 4.39043 0.00454904 
-18.5134 92.7424 619.244 14.268 4.90258 11.2224 4.17629 15.597 -4.08228 5.51534 15.4392 -6.20175 6.60753 0.444595 -5.26635 2.44183 -14.0519 -0.281681 -6.91621 2.77389 2.33076 5.81656 -6.30947 -27.3161 -25.4173 8.6595 -35.8165 -0.000444012 4.70198e-05 -43.2745 33.1991 13.7929 -12.8498 0.422705 -4.15423 26.3582 20.7803 -17.9083 12.2741 -3.91201e-05 2.04521e-05 72.1377 -34.0939 44.2918 8.99236 17.5243 -38.5598 37.5625 0.809984 87.1579 -0.229967 0.828624 47.357 -14.8464 -0.0961998 -3.45192 -0.00289418 -18.6745 -44.9079 -7.51752 -0.00985183 54.4877 -0.0700654 -3.7642 -9.49547 -2.85445 -0.0883605 3.16803 0.00394655 
-18.2924 97.1744 625.819 19.1915 7.36673 6.26632 2.79566 16.2527 -2.9115 4.82065 15.3582 -5.14173 5.20696 0.167559 -5.2193 1.94257 -9.91115 -0.401144 -7.2029 -0.0435799 1.56318 5.24511 -5.18466 -24.1555 -33.3204 12.234 -34.0793 -0.000439963 4.28491e-05 -48.4329 44.0684 16.8468 -18.8308 1.68335 -3.46676 23.1255 23.3599 -14.874 7.92026 -4.18197e-05 8.26722e-06 82.8777 -38.5205 48.3836 12.2686 24.8658 -42.8608 45.1345 179.435 84.2971 -178.628 -0.769747 37.2297 -8.43784 -0.105077 -3.77108 -0.00284364 -21.8951 -40.3719 -5.67515 -0.00725994 47.7169 -0.0638985 -3.06921 -8.15899 0.24091 -0.0373082 1.33754 0.00340963 
-18.306 103.312 631.689 25.2378 10.2445 0.219605 0.799184 16.2054 -1.4339 3.58385 15.6839 -4.17654 3.52973 0.853842 -5.46687 1.32973 -7.76233 -0.445104 -7.73596 -2.02384 0.820992 3.16499 -3.99116 -22.4777 -36.7766 14.8341 -35.4255 -0.000441549 4.45729e-05 -46.3549 51.5868 17.7647 -24.2255 2.85233 -2.73543 21.911 25.6464 -14.1945 5.65936 -4.21906e-05 4.37487e-06 86.238 -44.4469 49.4272 16.4971 31.3943 -47.0665 50.6149 179.622 77.792 -178.475 -0.292309 26.032 -6.41121 -0.146884 -5.27487 -0.00277151 -25.8248 -35.283 -1.57394 -0.00340097 34.0966 -0.0367105 -0.681125 1.97675 1.89679 0.0815458 -2.92545 0.00290664 
-18.9552 109.702 636.807 31.4083 13.24 -6.2282 -1.34182 16.3529 -0.17684 1.8731 15.8624 -3.03771 2.13038 1.3669 -5.13775 0.364825 -8.46223 -0.300304 -7.48743 -2.81299 0.485252 1.14678 -3.61416 -22.8186 -34.5724 19.2748 -37.5637 -0.000444546 4.7517e-05 -42.6271 53.5371 16.2282 -24.9234 3.48947 -2.44213 20.0935 27.8487 -13.4855 4.63213 -4.21825e-05 4.49539e-06 86.1342 -49.1494 47.403 19.1543 40.5516 -51.9196 56.405 179.62 71.9111 -177.938 5.18357 13.9755 -4.44473 -0.183385 -6.5912 -0.00267729 -28.7127 -31.7164 5.49474 -0.00443661 18.0492 -0.0558937 1.94719 19.7231 -2.9451 0.130876 -4.6997 0.00242941 
-20.2259 115.318 641.199 36.0986 16.3124 -12.4171 -3.28658 16.9415 0.106438 0.275385 15.6181 -2.87482 0.812117 1.1977 -5.53158 0.816407 -9.15213 0.0533816 -7.75408 -6.13419 2.91851 0.33678 -2.59941 -23.8857 -31.6723 21.8384 -36.9999 7.16005e-05 4.98283e-05 -39.5052 55.4129 13.5992 -23.9837 4.1963 -2.60766 18.6426 30.325 -9.46494 7.75296 -4.16674e-05 9.40661e-06 81.8899 -54.2137 45.4201 22.0971 55.0352 -55.3809 64.0007 179.579 69.1641 -177.449 9.4215 6.76773 5.73338 -0.176515 -6.34385 -0.00255639 -28.2411 -33.0542 6.68753 -0.00913282 14.9385 -0.121639 2.30203 23.103 -4.80236 -0.084285 3.02561 0.0019649 
-21.8093 120.244 644.697 38.391 18.8445 -15.5554 -3.63525 18.4264 -1.72763 -0.960857 15.7841 -4.63917 0.0387848 0.683446 -6.20686 3.33902 -9.59281 0.0283746 -8.67777 -9.93118 6.39788 0.13913 -2.07217 -24.8639 -31.216 21.5946 -33.7448 0.0179829 5.18168e-05 -36.6441 57.0701 11.8972 -23.4233 4.18929 -3.09481 18.2178 32.9101 -4.70707 14.7373 -3.96991e-05 1.85597e-05 73.8383 -58.6434 42.617 24.6772 69.6205 -58.686 69.2289 179.518 71.2926 -177.32 15.2204 0.652221 14.2096 -0.143626 -5.15913 -0.0024168 -24.3713 -36.843 4.48194 -0.0195488 22.8607 -0.249508 5.02229 27.3068 2.0538 -0.0718802 2.58033 0.00152545 
-23.6558 124.53 647.407 40.4861 20.0848 -16.5395 -4.16647 20.7316 -2.68847 -1.85925 15.9879 -7.07798 0.403705 0.199311 -6.84086 6.25327 -10.291 -0.0394534 -8.85381 -10.4337 8.15395 0.386006 -2.16216 -26.5785 -30.9759 21.4062 -32.6419 0.00418427 5.49829e-05 -31.6375 54.6591 10.5177 -21.8336 3.42542 -3.39608 18.5609 34.637 -1.5295 19.843 -3.45361e-05 2.80231e-05 65.1479 -61.9224 39.0636 26.2793 79.7075 -61.8172 71.5603 179.387 78.4437 -177.637 15.9036 -4.87514 15.0878 -0.155285 -5.57935 -0.00227296 -19.4621 -39.3995 4.87155 -0.0438103 38.6208 -0.466532 8.45556 29.295 5.50344 -0.0545017 1.95691 0.0011054 
-25.3148 128.301 649.672 43.5728 19.7008 -17.4638 -5.0553 23.361 -2.93603 -2.77917 16.3061 -8.50052 0.481227 -0.199378 -7.48056 8.01628 -12.0034 -0.0342105 -8.85227 -9.92118 9.04393 0.370575 -2.90629 -29.5036 -28.0016 23.5577 -33.617 -0.000902935 5.82663e-05 -25.5478 46.5976 9.32436 -18.77 2.92978 -3.75349 18.5058 34.8788 0.837405 23.1197 -0.010953 3.57004e-05 57.6278 -60.7535 37.3816 23.4043 82.7548 -64.1058 71.9596 174.46 89.1782 -173.325 13.7445 -7.22009 12.4979 -0.180968 -6.50621 -0.00212376 -11.3897 -41.0002 4.06609 -0.0855015 55.2812 -0.635933 11.2508 28.5032 7.78242 -0.0419616 1.50649 0.000703243 
-26.3861 131.729 651.74 46.3869 19.4917 -19.8477 -5.34979 25.0589 -2.89294 -3.59303 16.6463 -9.0088 -0.093648 -0.907309 -7.85343 7.93139 -13.8667 0.266098 -8.47785 -10.1695 9.99294 0.196081 -3.80949 -32.1076 -22.9566 26.3704 -35.782 -0.00328789 6.02434e-05 -21.1182 29.7604 10.8595 -13.5668 2.63744 -4.12208 19.4845 32.5517 3.75737 24.9853 -2.07976e-05 4.23598e-05 50.5584 -58.4034 35.5724 19.6963 83.6448 -64.5473 73.3687 0.218068 79.0165 0.377235 9.6033 -7.50796 8.58846 -0.20289 -7.29966 -0.00197046 -8.40135 -42.8958 -9.8435 -0.162005 69.5314 -0.7016 14.296 27.7246 7.14534 -0.0102345 0.366804 0.000316937 
-26.7398 134.861 653.925 48.5285 19.1805 -23.3033 -5.15745 26.0234 -2.60168 -4.19875 17.1585 -8.96123 -0.868104 -1.67713 -7.74455 6.27569 -15.928 0.708553 -8.46185 -10.9571 9.92941 -0.0708274 -4.5302 -33.1604 -18.9407 25.6546 -38.2424 -0.0056603 5.98272e-05 -22.1204 6.03155 18.4431 -2.34266 1.58653 -4.35887 21.3524 28.9612 7.08293 25.702 -6.74277e-05 4.78517e-05 44.1387 -56.5797 33.1137 16.7727 82.112 -64.0034 73.5658 0.0357942 67.6828 0.156042 3.08908 -4.49714 4.04975 -0.214163 -7.70784 -0.00181559 -7.25672 -44.3085 -16.8413 -0.455596 81.9969 -0.463419 14.5075 26.0797 6.55827 0.0330202 -1.18688 -5.51795e-05 
-26.3673 137.539 656.586 49.8567 18.0536 -26.5726 -4.57677 26.8246 -2.42348 -4.36497 17.8485 -8.48331 -1.67835 -2.23649 -7.45782 3.65726 -17.6552 0.947279 -8.90194 -11.0896 8.82108 -0.253005 -5.35114 -32.9572 -17.2395 22.2426 -40.1347 -0.00726376 5.72218e-05 -27.6188 -19.022 21.2763 10.4055 0.522696 -4.71921 23.1853 26.2053 9.61174 25.5187 -7.35737e-05 5.19187e-05 38.8627 -54.1407 31.7805 14.831 77.5064 -64.0074 71.0511 -0.00306758 58.0585 -0.0266666 -1.59762 4.13412 1.02023 -0.191978 -6.9057 -0.00166002 -9.37494 -47.0096 -23.8663 -178.892 86.9703 178.052 15.4857 23.8752 6.43746 0.0626935 -2.25282 -0.000415328 
-25.6526 139.724 659.847 49.9437 16.3558 -29.167 -3.73638 27.2353 -2.24733 -4.27092 18.5518 -7.94382 -1.75251 -2.27844 -6.81771 0.542065 -17.7473 1.13897 -9.3072 -11.0319 7.49639 0.324423 -5.72232 -31.5385 -18.6954 16.8401 -40.9393 -0.00782664 5.32571e-05 -34.446 -23.535 23.9673 11.5515 0.274788 -4.86156 24.7557 24.726 10.6458 24.9467 -7.55054e-05 5.56255e-05 33.4628 -52.189 31.0542 14.592 70.3805 -64.4482 65.7167 -0.0126605 51.7677 -0.107612 -3.36259 10.8562 -1.03432 -0.172455 -6.20186 -0.00151351 -8.01353 -54.1105 -25.675 -179.791 76.9268 179.119 13.8891 20.2902 7.37747 0.0821236 -2.95251 -0.000765315 
-24.7598 141.279 663.693 48.7162 14.3742 -31.3576 -2.73015 27.3517 -2.14389 -3.69888 18.9857 -7.16197 -1.4551 -1.79541 -5.90846 -2.44205 -16.9896 1.40035 -9.7562 -10.3039 6.71878 0.535084 -5.79479 -29.8692 -22.1004 10.7102 -40.5561 -0.00834747 4.88341e-05 -40.8721 -15.1701 21.3718 6.34021 0.724259 -4.73638 26.036 23.6179 11.0941 24.0051 -7.42201e-05 5.86593e-05 28.3885 -49.9943 31.0888 14.5193 62.0903 -64.2389 59.1548 -0.0163213 48.4686 -0.147506 -4.56102 15.809 -2.25934 -0.162682 -5.84931 -0.0013802 -11.3404 -63.0248 -27.1972 -179.913 67.8996 179.455 10.7218 14.4852 6.2732 0.089325 -3.21297 -0.0011065 
-23.7782 142.048 668.114 46.3189 11.8553 -32.9816 -1.49773 27.4285 -2.12022 -2.83024 19.5134 -6.25008 -0.822545 -1.00884 -5.06553 -5.28157 -16.1065 1.77398 -10.0162 -9.14031 6.28102 0.521793 -5.98775 -28.1671 -25.6041 5.51069 -39.1822 -0.00882951 4.34415e-05 -47.7265 -5.27023 15.2649 1.64063 1.18958 -4.74371 27.1075 22.5522 12.4448 22.2799 -7.10724e-05 6.07494e-05 24.3436 -47.1594 31.4031 13.9296 52.1688 -62.915 51.4215 -0.0173448 46.9482 -0.163882 -5.32029 20.219 -3.55834 -0.153343 -5.51264 -0.0012627 -10.8307 -73.4479 -27.2008 -179.989 60.6423 179.759 7.60863 8.32959 3.92728 0.0912311 -3.28219 -0.00144046 
-22.8454 141.801 672.948 42.91 9.52135 -34.2487 0.0517041 27.1801 -2.05091 -1.7586 19.9619 -5.39567 0.167688 -0.100694 -4.13005 -8.19723 -14.9962 2.22184 -10.2775 -7.90567 5.89441 0.398869 -5.78821 -26.5416 -28.9017 0.499296 -36.7814 -0.00927678 3.69016e-05 -55.1519 -1.4573 11.2736 -0.287912 1.67011 -4.58171 27.7465 21.5219 14.9487 19.7597 -6.68075e-05 6.20741e-05 21.4156 -45.2011 31.748 13.8602 43.0777 -60.2974 44.7994 -0.0167747 46.1416 -0.161138 -5.06986 24.0262 -5.745 -0.15024 -5.40137 -0.00116514 -13.9792 -80.4171 -29.721 179.991 56.6694 -179.924 6.0064 4.45903 2.15599 0.0984677 -3.54396 -0.0017694 
-22.1373 140.576 678.059 38.8604 7.70479 -35.5561 1.80445 26.413 -1.97525 -0.65 20.2034 -4.5413 1.1906 0.934874 -3.2316 -10.8904 -13.5846 2.73093 -10.6569 -6.67025 5.77791 0.506837 -5.93096 -24.9765 -32.0721 -3.49085 -33.3839 -0.00969409 3.03256e-05 -61.9931 -0.657085 9.77252 -1.11869 2.44892 -4.1292 27.737 20.9979 18.06 16.9385 -6.14472e-05 6.30163e-05 19.0756 -45.5695 31.661 15.6307 35.7551 -56.3518 39.9126 -0.0388166 44.8031 -0.148294 -4.72598 27.6932 -8.10237 -0.14509 -5.21538 -0.00109066 -116.089 -86.7214 -129.494 179.963 55.8073 -179.667 4.98557 1.1283 0.708038 0.109488 -3.94183 -0.0020952 
-21.7113 138.452 683.335 34.5587 6.36809 -37.3492 3.50195 25.0649 -1.77625 0.281125 20.3435 -3.57511 2.05807 2.0743 -2.39509 -13.0036 -11.7948 3.36211 -11.0975 -5.82709 6.06012 0.816983 -6.2806 -23.4579 -33.8291 -5.75321 -29.0009 -0.0100853 2.42321e-05 -67.962 0.0476748 7.11832 -2.00011 3.39538 -3.18818 27.0459 20.8979 21.5252 13.9525 -5.58253e-05 6.35633e-05 17.5808 -47.9421 31.0892 18.2328 29.9179 -51.1417 36.7037 -0.013247 42.1486 -0.122153 -4.01587 30.7844 -10.3111 -0.13977 -5.02429 -0.0010432 -129.85 -86.5772 -143.613 179.946 57.9421 -179.541 3.69079 -2.34346 -0.299542 0.111731 -3.73792 -0.00241763 
